Coordinates
version=1
nRows=10
nColumns=63
inDegrees=yes

Units are S.I. units (second, meters, Newtons, ...)
If the header above contains a line with 'inDegrees', this indicates whether rotational values are in degrees (yes) or radians (no).

endheader
time	pelvis_tilt	pelvis_list	pelvis_rotation	pelvis_tx	pelvis_ty	pelvis_tz	hip_flexion_r	hip_adduction_r	hip_rotation_r	knee_angle_r	knee_angle_r_beta	ankle_angle_r	subtalar_angle_r	mtp_angle_r	hip_flexion_l	hip_adduction_l	hip_rotation_l	knee_angle_l	knee_angle_l_beta	ankle_angle_l	subtalar_angle_l	mtp_angle_l	L5_S1_Flex_Ext	L5_S1_Lat_Bending	L5_S1_axial_rotation	L4_L5_Flex_Ext	L4_L5_Lat_Bending	L4_L5_axial_rotation	L3_L4_Flex_Ext	L3_L4_Lat_Bending	L3_L4_axial_rotation	L2_L3_Flex_Ext	L2_L3_Lat_Bending	L2_L3_axial_rotation	L1_L2_Flex_Ext	L1_L2_Lat_Bending	L1_L2_axial_rotation	L1_T12_Flex_Ext	L1_T12_Lat_Bending	L1_T12_axial_rotation	Abs_r3	Abs_r2	Abs_r1	Abs_t1	Abs_t2	neck_flexion	neck_bending	neck_rotation	arm_flex_r	arm_add_r	arm_rot_r	elbow_flex_r	pro_sup_r	wrist_flex_r	wrist_dev_r	arm_flex_l	arm_add_l	arm_rot_l	elbow_flex_l	pro_sup_l	wrist_flex_l	wrist_dev_l
      7.50000000	    -62.44262347	     -3.81409311	      7.12623465	     -0.29063087	      1.13534306	      0.03422169	     84.16376344	    -11.10546102	    -17.45433526	     29.79953681	      0.52010003	     -3.61177884	      4.71954671	      0.00000000	    120.89031321	      7.37978973	      5.50795102	    105.76914109	      1.84601976	     28.68513588	     -0.01838799	      0.00000000	     -0.08552753	      0.51848640	     -1.00378246	     -0.15883318	      0.68958692	     -1.06651886	     -0.14051318	      1.26064784	     -1.06651886	     -0.09774942	      1.26064784	     -0.87830965	     -0.07942087	      1.05729747	     -0.81557325	     -0.04887043	      0.80313544	     -0.75283684	     -0.61091460	      5.86522189	     -5.58273688	      0.00000000	      0.00000000	      0.00000000	      0.00000000	      0.00000000	     59.02224630	    -10.50028861	     -5.70665207	     50.19407515	     62.79465839	      0.00000000	      5.00000014	     63.24481486	     -4.27264027	      3.15619583	     45.37038271	     63.87189979	      0.00000000	      5.00000014
      7.50800000	    -62.50417551	     -3.67491642	      7.55628206	     -0.29066903	      1.13581970	      0.03335801	     83.60289651	    -11.60861559	    -17.72807550	     30.18744551	      0.52687032	     -3.75781928	      4.90653805	      0.00000000	    121.71047253	      7.80493305	      5.14591570	    105.22643025	      1.83654767	     29.54105375	      0.08627839	      0.00000000	     -0.08510110	      0.48865455	     -1.07302199	     -0.15804125	      0.64991056	     -1.14008586	     -0.13981260	      1.18811468	     -1.14008586	     -0.09726205	      1.18811468	     -0.93889424	     -0.07902488	      0.99646436	     -0.87183037	     -0.04862677	      0.75692590	     -0.80476649	     -0.60786864	      5.52775803	     -5.96782640	      0.00000000	      0.00000000	      0.00000000	      0.00000000	      0.00000000	     58.91896184	    -10.60389134	     -5.81153246	     50.27909656	     62.78094855	      0.00000000	      5.00000014	     63.42087151	     -4.27762088	      3.61723044	     45.25912540	     63.93162208	      0.00000000	      5.00000014
      7.51700000	    -62.58988753	     -3.42765930	      7.91866212	     -0.29072050	      1.13635294	      0.03264037	     83.21956861	    -12.16509163	    -18.12750099	     30.94878583	      0.54015821	     -3.40802235	      5.25723022	      0.00000000	    122.41593723	      8.09807744	      4.73193320	    104.43470015	      1.82272937	     30.10563851	      0.38908463	      0.00000000	     -0.08286302	      0.44808473	     -1.13978993	     -0.15388492	      0.59595269	     -1.21102680	     -0.13613566	      1.08947320	     -1.21102680	     -0.09470415	      1.08947320	     -0.99731619	     -0.07694660	      0.91373437	     -0.92607932	     -0.04734793	      0.69408324	     -0.85484245	     -0.59188229	      5.06882404	     -6.33916966	      0.00000000	      0.00000000	      0.00000000	      0.00000000	      0.00000000	     58.83643046	    -10.58339542	     -5.95349689	     50.30587267	     62.79499335	      0.00000000	      5.00000014	     63.59442289	     -4.52922688	      4.49267586	     45.20373818	     64.08703681	      0.00000000	      5.00000014
      7.52500000	    -62.67428456	     -3.35639981	      7.99195135	     -0.29080962	      1.13699588	      0.03208182	     83.02901878	    -12.38249011	    -18.08055093	     32.06116653	      0.55957292	     -3.38279741	      5.25795637	      0.00000000	    122.99594308	      8.27190179	      4.60512571	    103.42332341	      1.80507752	     30.39291262	      0.25051483	      0.00000000	     -0.08324282	      0.43617122	     -1.15241868	     -0.15459025	      0.58010772	     -1.22444485	     -0.13675964	      1.06050671	     -1.22444485	     -0.09513822	      1.06050671	     -1.00836635	     -0.07729929	      0.88944035	     -0.93634018	     -0.04756495	      0.67562922	     -0.86431401	     -0.59459517	      4.93405608	     -6.40940698	      0.00000000	      0.00000000	      0.00000000	      0.00000000	      0.00000000	     58.84938849	    -10.65035989	     -5.95839114	     50.34619590	     62.78323313	      0.00000000	      5.00000014	     63.69084212	     -4.56582405	      4.74971417	     45.20309321	     64.11277653	      0.00000000	      5.00000014
      7.53300000	    -62.76086973	     -3.27531903	      7.98071680	     -0.29084943	      1.13778694	      0.03153914	     83.03213827	    -12.57305542	    -17.96264527	     33.57536324	      0.58600064	     -3.26901112	      5.10330179	      0.00000000	    123.38455405	      8.38644757	      4.50635863	    102.12807213	      1.78247112	     30.46998495	      0.04566388	      0.00000000	     -0.08286254	      0.42692142	     -1.14877964	     -0.15388402	      0.56780549	     -1.22057836	     -0.13613487	      1.03801675	     -1.22057836	     -0.09470360	      1.03801675	     -1.00518218	     -0.07694615	      0.87057817	     -0.93338345	     -0.04734765	      0.66130129	     -0.86158473	     -0.59187883	      4.82942054	     -6.38916770	      0.00000000	      0.00000000	      0.00000000	      0.00000000	      0.00000000	     58.86401342	    -10.72319237	     -5.94493919	     50.35262121	     62.76591149	      0.00000000	      5.00000014	     63.72174174	     -4.59794927	      4.99543412	     45.21963145	     64.12571306	      0.00000000	      5.00000014
      7.54200000	    -62.88049333	     -2.95446081	      8.13962867	     -0.29100052	      1.13879608	      0.03100230	     83.30954856	    -12.99008806	    -17.49986488	     35.51728916	      0.61989364	     -2.97257807	      4.47913385	      0.00000000	    123.57156727	      8.51653264	      4.03580295	    100.42282829	      1.75270900	     30.19022912	     -0.60537127	      0.00000000	     -0.08345751	      0.38615055	     -1.17828655	     -0.15498895	      0.51358023	     -1.25192946	     -0.13711235	      0.93888645	     -1.25192946	     -0.09538359	      0.93888645	     -1.03100073	     -0.07749865	      0.78743820	     -0.95735782	     -0.04768762	      0.59814720	     -0.88371491	     -0.59612866	      4.36821226	     -6.55327632	      0.00000000	      0.00000000	      0.00000000	      0.00000000	      0.00000000	     58.85183102	    -10.71745043	     -5.93163567	     50.36407210	     62.76324836	      0.00000000	      5.00000014	     63.87152995	     -4.77463755	      5.50400318	     45.19310375	     64.19692535	      0.00000000	      5.00000014
      7.55000000	    -62.99218159	     -2.73890641	      7.93958265	     -0.29113242	      1.13980171	      0.03085293	     83.78791314	    -12.98408160	    -16.70664972	     37.78151167	      0.65941177	     -2.95650612	      3.58656415	      0.00000000	    123.58489501	      8.41698929	      3.86343723	     98.53741365	      1.71980230	     29.63055894	     -1.42014096	      0.00000000	     -0.08389358	      0.36291728	     -1.13806768	     -0.15579876	      0.48267998	     -1.20919691	     -0.13782876	      0.88239706	     -1.20919691	     -0.09588197	      0.88239706	     -0.99580922	     -0.07790358	      0.74006091	     -0.92467999	     -0.04793679	      0.56215886	     -0.85355076	     -0.59924343	      4.10539280	     -6.32959099	      0.00000000	      0.00000000	      0.00000000	      0.00000000	      0.00000000	     58.87166426	    -10.70734018	     -6.05491169	     50.37858958	     62.75133301	      0.00000000	      5.00000014	     63.98185395	     -4.87213694	      5.86250218	     45.14309407	     64.26032147	      0.00000000	      5.00000014
      7.55800000	    -63.06280146	     -2.80874979	      7.44734412	     -0.29120239	      1.14074416	      0.03088429	     84.31176896	    -12.68890143	    -16.22525396	     40.29203572	      0.70322869	     -2.86367667	      3.12076994	      0.00000000	    123.39539937	      8.21124888	      4.16849883	     96.48783161	      1.68403035	     29.20663069	     -1.67155658	      0.00000000	     -0.08626971	      0.38076319	     -1.04129290	     -0.16021148	      0.50641504	     -1.10637370	     -0.14173251	      0.92578762	     -1.10637370	     -0.09859765	      0.92578762	     -0.91113129	     -0.08011005	      0.77645229	     -0.84605048	     -0.04929451	      0.58980218	     -0.78096967	     -0.61621591	      4.30726934	     -5.79135871	      0.00000000	      0.00000000	      0.00000000	      0.00000000	      0.00000000	     58.98118216	    -10.78057885	     -6.10346537	     50.35388152	     62.69132233	      0.00000000	      5.00000014	     64.00654394	     -4.81200828	      5.90296722	     45.13118940	     64.20808755	      0.00000000	      5.00000014
      7.56700000	    -63.15621632	     -2.84697540	      6.91576089	     -0.29132598	      1.14166074	      0.03100583	     85.03268772	    -12.33852442	    -15.59233092	     43.06988379	      0.75171128	     -2.69835046	      2.49557899	      0.00000000	    123.00626028	      7.96177494	      4.49518141	     94.15187940	      1.64326029	     28.63319153	     -1.96031476	      0.00000000	     -0.08466436	      0.39432489	     -0.92951360	     -0.15723018	      0.52445211	     -0.98760820	     -0.13909508	      0.95876155	     -0.98760820	     -0.09676290	      0.95876155	     -0.81332440	     -0.07861932	      0.80410732	     -0.75522980	     -0.04837721	      0.61080926	     -0.69713520	     -0.60474905	      4.46068207	     -5.16967578	      0.00000000	      0.00000000	      0.00000000	      0.00000000	      0.00000000	     59.10025845	    -10.90431950	     -6.14422990	     50.26330345	     62.61681613	      0.00000000	      5.00000014	     64.03731524	     -4.67857437	      5.89939226	     45.10587168	     64.13036923	      0.00000000	      5.00000014
      7.57500000	    -63.26662422	     -2.31502830	      6.61389470	     -0.29155970	      1.14264665	      0.03144043	     86.16006039	    -12.09977922	    -13.94883442	     46.23147327	      0.80689143	     -3.04070949	      0.26287882	      0.00000000	    122.35485580	      7.57094499	      4.01631824	     91.43643197	      1.59586679	     27.43438686	     -3.38502160	      0.00000000	     -0.08706240	      0.32889964	     -0.86832678	     -0.16168357	      0.43743652	     -0.92259720	     -0.14303481	      0.79968658	     -0.92259720	     -0.09950361	      0.79968658	     -0.75978593	     -0.08084614	      0.67069214	     -0.70551551	     -0.04974745	      0.50946554	     -0.65124508	     -0.62187798	      3.72057847	     -4.82937305	      0.00000000	      0.00000000	      0.00000000	      0.00000000	      0.00000000	     59.08742345	    -10.81542805	     -6.24594553	     50.18944547	     62.53106624	      0.00000000	      5.00000014	     64.26774000	     -4.65143423	      5.83550013	     44.81137457	     64.06092977	      0.00000000	      5.00000014
